<svg width="38" height="38" viewBox="0 0 38 38" fill="none" xmlns="http://www.w3.org/2000/svg">
<path d="M0.75 18.75C0.75 23.5239 2.64642 28.1023 6.02208 31.4779C9.39773 34.8536 13.9761 36.75 18.75 36.75C23.5239 36.75 28.1023 34.8536 31.4779 31.4779C34.8536 28.1023 36.75 23.5239 36.75 18.75C36.75 13.9761 34.8536 9.39773 31.4779 6.02208C28.1023 2.64642 23.5239 0.75 18.75 0.75C13.9761 0.75 9.39773 2.64642 6.02208 6.02208C2.64642 9.39773 0.75 13.9761 0.75 18.75Z" fill="#F1FF29" stroke="black" stroke-width="1.5" stroke-linecap="round" stroke-linejoin="round"/>
<path d="M24.6139 29.55C24.7922 29.5493 24.9681 29.5094 25.1292 29.4332C25.2904 29.3569 25.4328 29.2462 25.5463 29.1088C25.6599 28.9714 25.7419 28.8107 25.7865 28.6381C25.8311 28.4655 25.8371 28.2852 25.8043 28.11C25.4723 26.4841 24.5888 25.0228 23.3033 23.9733C22.0179 22.9239 20.4094 22.3506 18.7499 22.3506C17.0904 22.3506 15.4819 22.9239 14.1965 23.9733C12.911 25.0228 12.0275 26.4841 11.6955 28.11C11.6627 28.2852 11.6687 28.4655 11.7133 28.6381C11.7579 28.8107 11.8399 28.9714 11.9535 29.1088C12.067 29.2462 12.2094 29.3569 12.3706 29.4332C12.5317 29.5094 12.7076 29.5493 12.8859 29.55H24.6139ZM10.3499 10.35L15.1499 15.15H9.1499M27.1499 10.35L22.3499 15.15H28.3499" fill="#F1FF29"/>
<path d="M10.3499 10.35L15.1499 15.15H9.1499M27.1499 10.35L22.3499 15.15H28.3499M24.6139 29.55C24.7922 29.5493 24.9681 29.5094 25.1292 29.4332C25.2904 29.3569 25.4328 29.2462 25.5463 29.1088C25.6599 28.9714 25.7419 28.8107 25.7865 28.6381C25.8311 28.4655 25.8371 28.2852 25.8043 28.11C25.4723 26.4841 24.5888 25.0228 23.3033 23.9733C22.0179 22.9239 20.4094 22.3506 18.7499 22.3506C17.0904 22.3506 15.4819 22.9239 14.1965 23.9733C12.911 25.0228 12.0275 26.4841 11.6955 28.11C11.6627 28.2852 11.6687 28.4655 11.7133 28.6381C11.7579 28.8107 11.8399 28.9714 11.9535 29.1088C12.067 29.2462 12.2094 29.3569 12.3706 29.4332C12.5317 29.5094 12.7076 29.5493 12.8859 29.55H24.6139Z" stroke="black" stroke-width="1.5" stroke-linecap="round" stroke-linejoin="round"/>
</svg>
