<svg width="16" height="16" viewBox="0 0 16 16" fill="none" xmlns="http://www.w3.org/2000/svg">
<path d="M8 4.35201V2.00001C8 1.63207 8.29872 1.33334 8.66667 1.33334V1.33334" stroke="#8A9A98" stroke-width="1.33333" stroke-linecap="round" stroke-linejoin="round"/>
<path d="M12.1582 14C13.7843 12.161 14.6772 9.78814 14.6668 7.33332C14.6668 5.75594 13.7398 4.32586 12.2998 3.68191C10.8598 3.03796 9.17589 3.3004 8.00018 4.35199C6.82446 3.3004 5.14052 3.03796 3.70056 3.68191C2.2606 4.32586 1.33355 5.75594 1.33351 7.33332C1.3293 9.78702 2.22142 12.1578 3.84218 14C4.45645 14.6872 5.46082 14.8656 6.27418 14.432C7.35288 13.8565 8.64748 13.8565 9.72618 14.432C10.5395 14.8656 11.5439 14.6872 12.1582 14" stroke="#8A9A98" stroke-width="1.33333" stroke-linecap="round" stroke-linejoin="round"/>
</svg>
