<svg width="13" height="13" viewBox="0 0 13 13" fill="none" xmlns="http://www.w3.org/2000/svg">
<path d="M6.25 11.25C7.57608 11.25 8.84785 10.7232 9.78553 9.78553C10.7232 8.84785 11.25 7.57608 11.25 6.25C11.25 4.92392 10.7232 3.65215 9.78553 2.71447C8.84785 1.77678 7.57608 1.25 6.25 1.25C4.92392 1.25 3.65215 1.77678 2.71447 2.71447C1.77678 3.65215 1.25 4.92392 1.25 6.25C1.25 7.57608 1.77678 8.84785 2.71447 9.78553C3.65215 10.7232 4.92392 11.25 6.25 11.25ZM6.25 0C7.07076 0 7.88349 0.161661 8.64177 0.475753C9.40006 0.789845 10.0891 1.25022 10.6694 1.83058C11.2498 2.41095 11.7102 3.09994 12.0242 3.85823C12.3383 4.61651 12.5 5.42924 12.5 6.25C12.5 7.9076 11.8415 9.49732 10.6694 10.6694C9.49732 11.8415 7.9076 12.5 6.25 12.5C2.79375 12.5 0 9.6875 0 6.25C0 4.5924 0.65848 3.00269 1.83058 1.83058C3.00269 0.65848 4.5924 0 6.25 0ZM6.5625 3.125V6.40625L9.375 8.075L8.90625 8.84375L5.625 6.875V3.125H6.5625Z" fill="black" fill-opacity="0.85"/>
</svg>
