<svg width="31" height="31" viewBox="0 0 31 31" fill="none" xmlns="http://www.w3.org/2000/svg">
<path d="M27.5556 23.2622C27.5562 23.5108 27.458 23.7495 27.2826 23.9257C27.1072 24.102 26.8689 24.2013 26.6203 24.2019L20.2453 24.2172C20.0384 24.9963 19.5802 25.6853 18.9418 26.1775C18.3034 26.6697 17.5204 26.9375 16.7143 26.9395C15.9082 26.9414 15.124 26.6773 14.4833 26.1882C13.8425 25.6991 13.381 25.0122 13.1703 24.2341L3.49538 24.2573C3.24674 24.2579 3.00805 24.1597 2.83181 23.9843C2.65557 23.8089 2.55623 23.5707 2.55564 23.3221C2.55504 23.0734 2.65324 22.8347 2.82863 22.6585C3.00403 22.4823 3.24225 22.3829 3.49089 22.3823L13.1659 22.3591C13.3728 21.58 13.831 20.891 14.4694 20.3988C15.1078 19.9066 15.8907 19.6388 16.6968 19.6369C17.5029 19.6349 18.2872 19.899 18.9279 20.3881C19.5687 20.8772 20.0302 21.5641 20.2408 22.3422L26.6158 22.3269C26.8645 22.3263 27.1032 22.4245 27.2794 22.5999C27.4556 22.7753 27.555 23.0135 27.5556 23.2622ZM27.516 6.74971C27.5166 6.99835 27.4184 7.23704 27.243 7.41328C27.0676 7.58952 26.8294 7.68886 26.5807 7.68946L23.5183 7.69679C23.3113 8.47589 22.8531 9.16494 22.2147 9.65713C21.5763 10.1493 20.7934 10.4171 19.9873 10.4191C19.1812 10.421 18.3969 10.1569 17.7562 9.66782C17.1154 9.17869 16.6539 8.49184 16.4433 7.71374L3.45582 7.74486C3.3327 7.74516 3.21074 7.7212 3.09688 7.67436C2.98302 7.62752 2.87951 7.55871 2.79225 7.47186C2.70498 7.38502 2.63568 7.28183 2.58829 7.1682C2.54091 7.05457 2.51637 6.93272 2.51607 6.80961C2.51578 6.6865 2.53973 6.56453 2.58658 6.45067C2.63342 6.33682 2.70222 6.2333 2.78907 6.14604C2.87592 6.05878 2.9791 5.98947 3.09273 5.94209C3.20636 5.8947 3.32821 5.87016 3.45132 5.86987L16.4388 5.83875C16.6457 5.05966 17.1039 4.3706 17.7423 3.87841C18.3807 3.38622 19.1637 3.1184 19.9698 3.11646C20.7759 3.11453 21.5601 3.3786 22.2009 3.86773C22.8416 4.35685 23.3031 5.04371 23.5138 5.8218L26.5763 5.81446C26.6998 5.81248 26.8226 5.83529 26.9372 5.88153C27.0518 5.92778 27.156 5.99652 27.2436 6.0837C27.3312 6.17089 27.4004 6.27474 27.4472 6.38913C27.494 6.50352 27.5174 6.62613 27.516 6.74971ZM27.5358 14.9997C27.5377 15.1233 27.5149 15.246 27.4687 15.3606C27.4224 15.4752 27.3537 15.5794 27.2665 15.667C27.1793 15.7546 27.0755 15.8238 26.9611 15.8706C26.8467 15.9174 26.7241 15.9408 26.6005 15.9394L11.9756 15.9745C11.7686 16.7536 11.3104 17.4426 10.672 17.9348C10.0336 18.427 9.25067 18.6948 8.44457 18.6968C7.63846 18.6987 6.85424 18.4346 6.21349 17.9455C5.57273 17.4564 5.11125 16.7695 4.90058 15.9914L3.47558 15.9948C3.22694 15.9954 2.98825 15.8972 2.81201 15.7218C2.63578 15.5464 2.53643 15.3082 2.53584 15.0596C2.53524 14.8109 2.63344 14.5723 2.80884 14.396C2.98423 14.2198 3.22245 14.1204 3.47109 14.1198L4.89609 14.1164C5.10302 13.3373 5.56121 12.6483 6.19962 12.1561C6.83802 11.6639 7.62097 11.3961 8.42707 11.3941C9.23318 11.3922 10.0174 11.6563 10.6582 12.1454C11.2989 12.6345 11.7604 13.3214 11.9711 14.0995L26.596 14.0644C26.8447 14.0638 27.0834 14.162 27.2596 14.3374C27.4358 14.5128 27.5352 14.751 27.5358 14.9997Z" fill="#5F8FBF" fill-opacity="0.9"/>
</svg>
