<svg width="18" height="18" viewBox="0 0 18 18" fill="none" xmlns="http://www.w3.org/2000/svg">
<path opacity="0.987" fill-rule="evenodd" clip-rule="evenodd" d="M8.11015 1.19359C8.92578 1.10246 9.4084 1.10246 10.2848 1.19359C11.8361 1.42319 13.2741 2.14026 14.391 3.24109C13.6363 3.95449 12.8915 4.67831 12.1568 5.41234C10.7498 4.21984 9.17928 3.94459 7.44528 4.58659C6.17328 5.17159 5.28753 6.11959 4.78803 7.43059C3.97177 6.8229 3.16615 6.20105 2.37153 5.56534C2.31631 5.53627 2.25323 5.52563 2.19153 5.53496C3.45378 3.10121 5.42628 1.65371 8.10903 1.19246" fill="#F44336"/>
<path opacity="0.997" fill-rule="evenodd" clip-rule="evenodd" d="M2.18929 5.53496C2.25304 5.52521 2.31341 5.53533 2.37041 5.56533C3.16504 6.20105 3.97066 6.82289 4.78691 7.43058C4.65847 7.9414 4.5775 8.46299 4.54504 8.98871C4.57279 9.49721 4.65341 9.99633 4.78691 10.4861L2.25004 12.5055C1.14529 10.197 1.12504 7.87346 2.18929 5.53496Z" fill="#FFC107"/>
<path opacity="0.999" fill-rule="evenodd" clip-rule="evenodd" d="M14.2707 14.9512C13.4808 14.2546 12.6538 13.6011 11.7935 12.9937C12.656 12.3847 13.1795 11.5492 13.364 10.4872H9.13733V7.55208C11.5748 7.53183 14.0112 7.55246 16.4465 7.61396C16.9085 10.1227 16.3748 12.3847 14.8456 14.4C14.6637 14.5933 14.4711 14.7772 14.2707 14.9512Z" fill="#448AFF"/>
<path opacity="0.993" fill-rule="evenodd" clip-rule="evenodd" d="M4.78688 10.4872C5.70938 12.7799 7.40063 13.8502 9.86063 13.6979C10.5512 13.618 11.2133 13.3767 11.7934 12.9937C12.6544 13.6027 13.4801 14.2552 14.2706 14.9512C13.0181 16.0767 11.4211 16.7445 9.74025 16.8457C9.35836 16.8762 8.97464 16.8762 8.59275 16.8457C5.72925 16.5082 3.615 15.0614 2.25 12.5054L4.78688 10.4872Z" fill="#43A047"/>
</svg>
