<svg width="40" height="40" viewBox="0 0 40 40" fill="none" xmlns="http://www.w3.org/2000/svg">
<path d="M14 11.4286V16.5714V11.4286ZM26 11.4286V16.5714V11.4286ZM20 38C10.0589 38 2 29.9411 2 20C2 10.0589 10.0589 2 20 2C29.9411 2 38 10.0589 38 20C38 29.9411 29.9411 38 20 38ZM20.6291 21.7143H19.3691C15.8463 21.7143 12.3783 20.8297 9.28571 19.1429H8.85714V20C8.85714 22.9553 10.0311 25.7895 12.1208 27.8792C14.2105 29.9689 17.0447 31.1429 20 31.1429C22.9553 31.1429 25.7895 29.9689 27.8792 27.8792C29.9689 25.7895 31.1429 22.9553 31.1429 20V19.1429H30.7143C27.6208 20.829 24.154 21.713 20.6309 21.7143H20.6291Z" fill="#F1FF29"/>
<path d="M14 11.4286V16.5714M26 11.4286V16.5714M20 38C10.0589 38 2 29.9411 2 20C2 10.0589 10.0589 2 20 2C29.9411 2 38 10.0589 38 20C38 29.9411 29.9411 38 20 38ZM20.6291 21.7143H19.3691C15.8463 21.7143 12.3783 20.8297 9.28571 19.1429H8.85714V20C8.85714 22.9553 10.0311 25.7895 12.1208 27.8792C14.2105 29.9689 17.0447 31.1429 20 31.1429C22.9553 31.1429 25.7895 29.9689 27.8792 27.8792C29.9689 25.7895 31.1429 22.9553 31.1429 20V19.1429H30.7143C27.6208 20.829 24.154 21.713 20.6309 21.7143H20.6291Z" stroke="black" stroke-width="2"/>
</svg>
