<svg width="23" height="20" viewBox="0 0 23 20" fill="none" xmlns="http://www.w3.org/2000/svg">
<path fill-rule="evenodd" clip-rule="evenodd" d="M20.797 8.18001C20.4348 5.00001 18.2382 0 11.4501 0C4.66182 0 2.46527 5.00001 2.10309 8.18001C0.832491 8.59274 -0.00561273 9.63684 2.83011e-05 10.8V12.2C2.83011e-05 13.7464 1.46472 15 3.27144 15C5.07821 15 6.54291 13.7464 6.54291 12.2V10.8C6.537 9.66191 5.72973 8.63929 4.49823 8.21001C4.73192 6.36998 5.87694 2.00001 11.4501 2.00001C17.0232 2.00001 18.1565 6.36998 18.3902 8.21001C17.1612 8.64023 16.358 9.66356 16.3572 10.8V12.2C16.3597 12.7269 16.5352 13.2425 16.8637 13.6881C17.1922 14.1337 17.6604 14.4912 18.2149 14.72C17.7242 15.51 16.474 16.58 13.4012 16.9C12.787 16.1017 11.5986 15.787 10.5649 16.1489C9.53129 16.5108 8.94128 17.4481 9.15684 18.386C9.37241 19.3239 10.3332 20 11.4501 20C11.8828 19.9979 12.3064 19.8931 12.6736 19.6971C13.0408 19.5011 13.3372 19.2217 13.5297 18.89C18.542 18.4 20.1427 16.19 20.6451 14.89C22.0043 14.5131 22.9184 13.4227 22.9 12.2V10.8C22.9057 9.63684 22.0676 8.59274 20.797 8.18001ZM4.20616 12.2C4.20616 12.6418 3.78768 13 3.27144 13C2.75521 13 2.33678 12.6418 2.33678 12.2V10.8C2.33584 10.6944 2.35932 10.5897 2.40587 10.492C2.45242 10.3942 2.52112 10.3053 2.608 10.2303C2.69489 10.1554 2.79825 10.0959 2.91212 10.0553C3.02599 10.0147 3.14812 9.99385 3.27147 9.99385C3.39482 9.99385 3.51695 10.0147 3.63082 10.0553C3.74469 10.0959 3.84805 10.1554 3.93494 10.2303C4.02182 10.3053 4.09052 10.3942 4.13707 10.492C4.18362 10.5897 4.2071 10.6944 4.20616 10.8V12.2ZM18.6939 10.8C18.6939 10.3581 19.1124 9.99998 19.6286 9.99998C20.1449 9.99998 20.5633 10.3581 20.5633 10.8V12.2C20.5633 12.6418 20.1449 13 19.6286 13C19.1124 13 18.6939 12.6418 18.6939 12.2V10.8Z" fill="black" fill-opacity="0.7"/>
</svg>
