<svg width="28" height="28" viewBox="0 0 28 28" fill="none" xmlns="http://www.w3.org/2000/svg">
<g clip-path="url(#clip0_34666_385)">
<rect width="28" height="28" fill="white"/>
<path d="M23.3334 2.33334H10.889V6.22223H12.4446V3.8889H23.3334C23.8001 3.8889 24.1112 4.20001 24.1112 4.66668V13.2222C24.1112 13.6889 23.8001 14 23.3334 14H13.2223V19.4445H9.10011L6.22233 21.7V19.4445H3.889C3.42233 19.4445 3.11122 19.1333 3.11122 18.6667V10.1111C3.11122 9.64445 3.42233 9.33334 3.889 9.33334H14.0001V7.77779H3.889C2.56678 7.77779 1.55566 8.7889 1.55566 10.1111V18.6667C1.55566 19.9889 2.56678 21 3.889 21H4.66678V24.9667L9.56678 21H14.7779V15.5556H23.3334C24.6557 15.5556 25.6668 14.5445 25.6668 13.2222V4.66668C25.6668 3.34445 24.6557 2.33334 23.3334 2.33334Z" fill="black" fill-opacity="0.7"/>
<path d="M4.82227 17.8111H6.68893L7.1556 16.5667H9.56671L10.0334 17.8111H11.9L9.2556 10.8889H7.38893L4.82227 17.8111ZM8.32227 12.8333L9.10004 15.2444H7.54449L8.32227 12.8333Z" fill="black" fill-opacity="0.7"/>
<path d="M15.5557 13.2222C16.4112 13.2222 17.5779 12.9889 18.6668 12.4444C19.7557 12.9889 21.0001 13.2222 21.7779 13.2222V11.6667C21.7779 11.6667 21.0001 11.6667 20.1446 11.3555C21.0779 10.4222 21.7779 9.02221 21.7779 6.99999V6.22221H19.4446V4.66666H17.889V6.22221H15.5557V7.77777H20.1446C19.989 9.17777 19.3668 10.0333 18.6668 10.5778C18.2001 10.1889 17.7334 9.64443 17.4223 8.94443H15.789C16.1001 9.95554 16.5668 10.7333 17.189 11.3555C16.4112 11.6667 15.7112 11.6667 15.5557 11.6667V13.2222Z" fill="black" fill-opacity="0.7"/>
</g>
<defs>
<clipPath id="clip0_34666_385">
<rect width="28" height="28" fill="white"/>
</clipPath>
</defs>
</svg>
