<svg width="26" height="26" viewBox="0 0 26 26" fill="none" xmlns="http://www.w3.org/2000/svg">
<path d="M0.875 17.2083C0.875 13.909 0.875 12.2582 1.9005 11.2338C2.92483 10.2083 4.57567 10.2083 7.875 10.2083H17.2083C20.5077 10.2083 22.1585 10.2083 23.1828 11.2338C24.2083 12.2582 24.2083 13.909 24.2083 17.2083C24.2083 20.5077 24.2083 22.1585 23.1828 23.1828C22.1585 24.2083 20.5077 24.2083 17.2083 24.2083H7.875C4.57567 24.2083 2.92483 24.2083 1.9005 23.1828C0.875 22.1585 0.875 20.5077 0.875 17.2083Z" stroke="black" stroke-opacity="0.7" stroke-width="1.75"/>
<path d="M5.54199 10.2083V7.875C5.54199 6.01848 6.27949 4.23801 7.59224 2.92525C8.905 1.6125 10.6855 0.875 12.542 0.875C14.3985 0.875 16.179 1.6125 17.4917 2.92525C18.8045 4.23801 19.542 6.01848 19.542 7.875V10.2083" stroke="black" stroke-opacity="0.7" stroke-width="1.75" stroke-linecap="round"/>
<path d="M7.875 17.2083H7.8855M12.5312 17.2083H12.5417M17.1978 17.2083H17.2083" stroke="black" stroke-opacity="0.7" stroke-width="2.33333" stroke-linecap="round" stroke-linejoin="round"/>
</svg>
