<svg width="23" height="24" viewBox="0 0 23 24" fill="none" xmlns="http://www.w3.org/2000/svg">
<path fill-rule="evenodd" clip-rule="evenodd" d="M3.5 0C2.57174 0 1.6815 0.368749 1.02513 1.02513C0.368749 1.6815 0 2.57174 0 3.5V19.8333C0 20.7616 0.368749 21.6518 1.02513 22.3082C1.6815 22.9646 2.57174 23.3333 3.5 23.3333H10.5C11.4283 23.3333 12.3185 22.9646 12.9749 22.3082C13.6313 21.6518 14 20.7616 14 19.8333V3.5C14 2.57174 13.6313 1.6815 12.9749 1.02513C12.3185 0.368749 11.4283 0 10.5 0H3.5ZM15.5085 6.17517C15.7273 5.95645 16.024 5.83358 16.3333 5.83358C16.6427 5.83358 16.9394 5.95645 17.1582 6.17517L21.8248 10.8418C22.0435 11.0606 22.1664 11.3573 22.1664 11.6667C22.1664 11.976 22.0435 12.2727 21.8248 12.4915L17.1582 17.1582C16.9381 17.3707 16.6434 17.4883 16.3375 17.4856C16.0316 17.483 15.739 17.3603 15.5227 17.144C15.3064 16.9276 15.1837 16.635 15.181 16.3291C15.1784 16.0232 15.296 15.7285 15.5085 15.5085L18.1837 12.8333H8.16667C7.85725 12.8333 7.5605 12.7104 7.34171 12.4916C7.12292 12.2728 7 11.9761 7 11.6667C7 11.3572 7.12292 11.0605 7.34171 10.8417C7.5605 10.6229 7.85725 10.5 8.16667 10.5H18.1837L15.5085 7.82483C15.2898 7.60605 15.1669 7.30936 15.1669 7C15.1669 6.69064 15.2898 6.39395 15.5085 6.17517Z" fill="black" fill-opacity="0.6"/>
</svg>
