<svg width="30" height="30" viewBox="0 0 30 30" fill="none" xmlns="http://www.w3.org/2000/svg">
<path d="M28.4131 0H21.9214C21.5006 0 21.0969 0.167217 20.7993 0.464865C20.5018 0.762513 20.3346 1.16621 20.3346 1.58715C20.3346 2.00809 20.5018 2.41178 20.7993 2.70943C21.0969 3.00708 21.5006 3.1743 21.9214 3.1743H24.5823L20.2264 7.53102C15.3078 3.71753 8.18064 4.06815 3.66962 8.58214C-1.22369 13.4771 -1.22369 21.4402 3.67251 26.3322C6.02795 28.681 9.21839 30 12.5445 30C15.8706 30 19.0611 28.681 21.4165 26.3322C25.9297 21.8175 26.2802 14.6919 22.4675 9.77251L26.8263 5.41867V8.08003C26.8263 8.50097 26.9935 8.90466 27.2911 9.20231C27.5887 9.49996 27.9923 9.66718 28.4131 9.66718C28.834 9.66718 29.2376 9.49996 29.5352 9.20231C29.8328 8.90466 30 8.50097 30 8.08003V1.58715C30 1.37872 29.959 1.17233 29.8792 0.979773C29.7995 0.787211 29.6826 0.612245 29.5352 0.464865C29.3879 0.317485 29.2129 0.200576 29.0204 0.120815C28.8279 0.0410529 28.6215 0 28.4131 0ZM19.1747 24.09C17.415 25.8464 15.0305 26.8328 12.5445 26.8328C10.0585 26.8328 7.67402 25.8464 5.91431 24.09C2.25803 20.4338 2.25803 14.4835 5.91431 10.8272C9.57059 7.17103 15.5192 7.1703 19.1747 10.8272C22.8303 14.4842 22.831 20.4338 19.1747 24.09Z" fill="#0035E3"/>
</svg>
