<svg width="23" height="19" viewBox="0 0 23 19" fill="none" xmlns="http://www.w3.org/2000/svg">
<path d="M1.16667 17.4678L5.355 13.9028H18.6667C19.2855 13.9028 19.879 13.6935 20.3166 13.3211C20.7542 12.9486 21 12.4434 21 11.9167V2.97917C21 2.45242 20.7542 1.94724 20.3166 1.57477C19.879 1.20231 19.2855 0.993056 18.6667 0.993056H3.5C2.88116 0.993056 2.28767 1.20231 1.85008 1.57477C1.4125 1.94724 1.16667 2.45242 1.16667 2.97917V17.4678ZM1.16667 18.8681H0V2.97917C0 2.18904 0.368749 1.43128 1.02513 0.872578C1.6815 0.313876 2.57174 0 3.5 0H18.6667C19.5949 0 20.4852 0.313876 21.1415 0.872578C21.7979 1.43128 22.1667 2.18904 22.1667 2.97917V11.9167C22.1667 12.7068 21.7979 13.4646 21.1415 14.0233C20.4852 14.582 19.5949 14.8958 18.6667 14.8958H5.83333L1.16667 18.8681Z" fill="#0D99FF"/>
</svg>
