<svg width="20" height="22" viewBox="0 0 20 22" fill="none" xmlns="http://www.w3.org/2000/svg">
<path d="M13.6431 10.5966C13.6431 11.6887 13.2216 12.7361 12.4715 13.5083C11.7213 14.2805 10.7039 14.7143 9.64307 14.7143C8.5822 14.7143 7.56478 14.2805 6.81464 13.5083C6.06449 12.7361 5.64307 11.6887 5.64307 10.5966V4.83194C5.64307 3.73987 6.06449 2.69253 6.81464 1.92033C7.56478 1.14812 8.5822 0.714294 9.64307 0.714294C10.7039 0.714294 11.7213 1.14812 12.4715 1.92033C13.2216 2.69253 13.6431 3.73987 13.6431 4.83194V10.5966Z" stroke="#0D99FF" stroke-width="1.42857" stroke-linecap="round" stroke-linejoin="round"/>
<path d="M18.5715 10.1935C18.5739 11.1942 18.3676 12.1855 17.9646 13.1104C17.5616 14.0353 16.9698 14.8757 16.2232 15.5833C15.4765 16.2909 14.5897 16.8518 13.6137 17.2337C12.6377 17.6156 11.5917 17.8111 10.5358 17.8089H8.75009C7.69416 17.8111 6.64817 17.6156 5.67217 17.2337C4.69617 16.8518 3.80939 16.2909 3.06273 15.5833C2.31608 14.8757 1.72426 14.0353 1.32126 13.1104C0.918264 12.1855 0.712021 11.1942 0.714375 10.1935M9.64295 17.8089V21.1935" stroke="#0D99FF" stroke-width="1.42857" stroke-linecap="round" stroke-linejoin="round"/>
</svg>
