<svg width="35" height="35" viewBox="0 0 35 35" fill="none" xmlns="http://www.w3.org/2000/svg">
<path d="M26.2501 30.625C26.2501 27.5308 25.0209 24.5634 22.833 22.3755C20.6451 20.1875 17.6776 18.9584 14.5834 18.9584C11.4892 18.9584 8.52176 20.1875 6.33384 22.3755C4.14591 24.5634 2.91675 27.5308 2.91675 30.625" stroke="#9CA3AF" stroke-width="3.33333" stroke-linecap="round" stroke-linejoin="round"/>
<path d="M14.5834 18.9583C18.6105 18.9583 21.8751 15.6937 21.8751 11.6667C21.8751 7.63959 18.6105 4.375 14.5834 4.375C10.5563 4.375 7.29175 7.63959 7.29175 11.6667C7.29175 15.6937 10.5563 18.9583 14.5834 18.9583Z" stroke="#9CA3AF" stroke-width="3.33333" stroke-linecap="round" stroke-linejoin="round"/>
<path d="M32.0833 29.1667C32.0833 24.2521 29.1667 19.6875 26.25 17.5C27.2087 16.7807 27.9754 15.8362 28.4821 14.75C28.9888 13.6638 29.2199 12.4695 29.155 11.2727C29.0901 10.0759 28.7312 8.9135 28.1101 7.88846C27.4889 6.86341 26.6246 6.0073 25.5938 5.39587" stroke="#9CA3AF" stroke-width="3.33333" stroke-linecap="round" stroke-linejoin="round"/>
</svg>
