<svg width="21" height="21" viewBox="0 0 21 21" fill="none" xmlns="http://www.w3.org/2000/svg">
<path d="M7.43167 2.92833C7.22166 3.68431 7.11569 4.46539 7.11667 5.25C7.11667 10.01 10.99 13.8833 15.75 13.8833C16.5433 13.8833 17.325 13.7783 18.0717 13.5683C17.4593 15.0745 16.412 16.364 15.0633 17.2721C13.7146 18.1803 12.1259 18.6658 10.5 18.6667C5.99667 18.6667 2.33334 15.0033 2.33334 10.5C2.33334 7.08167 4.445 4.14167 7.43167 2.92833ZM10.5 0C8.4233 0 6.39323 0.615814 4.66652 1.76957C2.9398 2.92332 1.59399 4.5632 0.79927 6.48182C0.00454943 8.40045 -0.203386 10.5116 0.201759 12.5484C0.606904 14.5852 1.60693 16.4562 3.07538 17.9246C4.54383 19.3931 6.41476 20.3931 8.45156 20.7982C10.4884 21.2034 12.5996 20.9955 14.5182 20.2007C16.4368 19.406 18.0767 18.0602 19.2304 16.3335C20.3842 14.6068 21 12.5767 21 10.5C21 9.96333 20.9533 9.42667 20.8833 8.91333C20.3003 9.7307 19.5301 10.3966 18.637 10.8553C17.7439 11.314 16.754 11.5522 15.75 11.55C14.4144 11.55 13.1133 11.1258 12.0344 10.3386C10.9555 9.55137 10.1545 8.44178 9.74696 7.16988C9.33943 5.89797 9.34643 4.5295 9.76695 3.26183C10.1875 1.99417 10.9998 0.892827 12.0867 0.116667C11.5733 0.0466666 11.0367 0 10.5 0Z" fill="black" fill-opacity="0.7"/>
</svg>
