<svg width="86" height="92" viewBox="0 0 86 92" fill="none" xmlns="http://www.w3.org/2000/svg">
<path d="M11.3703 13.6562C10.8056 14.1119 10.4202 14.7525 10.282 15.4649C10.1439 16.1772 10.2619 16.9154 10.6153 17.5492L12.0663 20.2625L2.31472 25.4774C0.144068 26.6382 -0.62089 29.1618 0.539913 31.3324L31.1474 88.567C32.4533 91.0089 34.9682 91.7576 37.1388 90.5968L83.5201 65.7933C85.6908 64.6325 86.4557 62.109 85.2949 59.9383L54.551 2.44874C53.6616 0.132989 51.1217 -0.62326 48.9511 0.537542L39.1994 5.75245L37.7484 3.03914C37.3636 2.31953 36.7087 1.78226 35.9277 1.54553C35.1468 1.3088 34.3037 1.39201 33.5841 1.77684L11.8777 13.3849C11.7905 13.4263 11.7054 13.4718 11.6226 13.5213C11.5355 13.5627 11.4531 13.6068 11.3703 13.6562ZM17.493 17.3605L33.7728 8.65446L36.6748 14.0811L20.395 22.7871L17.493 17.3605ZM6.82843 30.0421L14.9684 25.6891L16.4194 28.4024C16.8042 29.122 17.4591 29.6593 18.2401 29.896C19.021 30.1328 19.8641 30.0496 20.5837 29.6647L42.2901 18.0567C43.0098 17.6719 43.547 17.0169 43.7838 16.236C44.0205 15.455 43.9373 14.612 43.5525 13.8924L42.1014 11.1791L50.2414 6.82606L79.2614 61.0922L35.8485 84.3083L6.82843 30.0421ZM19.5101 40.7067L25.3141 51.5599L36.1673 45.7559L30.3633 34.9026L19.5101 40.7067ZM23.6744 41.969L29.101 39.067L32.003 44.4936L26.5764 47.3956L23.6744 41.969ZM37.2409 34.7139L40.1429 40.1406L56.4228 31.4345L53.5208 26.0079L37.2409 34.7139ZM28.2161 56.9865L34.0201 67.8397L44.8733 62.0357L39.0693 51.1825L28.2161 56.9865ZM45.9469 50.9938L48.849 56.4204L65.1288 47.7144L62.2268 42.2878L45.9469 50.9938Z" fill="#D9D9D9" fill-opacity="0.5"/>
</svg>
