<svg width="24" height="27" viewBox="0 0 24 27" fill="none" xmlns="http://www.w3.org/2000/svg">
<path d="M19.5417 12.5417V5.24883C19.5417 5.15674 19.5236 5.06554 19.4884 4.98046C19.4532 4.89537 19.4015 4.81808 19.3363 4.753L15.6637 1.08033C15.5325 0.94902 15.3546 0.875163 15.169 0.875H1.575C1.38935 0.875 1.2113 0.94875 1.08003 1.08003C0.94875 1.2113 0.875 1.38935 0.875 1.575V23.5083C0.875 23.694 0.94875 23.872 1.08003 24.0033C1.2113 24.1346 1.38935 24.2083 1.575 24.2083H11.375M5.54167 10.2083H14.875H5.54167ZM5.54167 5.54167H10.2083H5.54167ZM5.54167 14.875H9.04167H5.54167Z" fill="black" fill-opacity="0.6"/>
<path d="M19.5417 12.5417V5.24883C19.5417 5.15674 19.5236 5.06554 19.4884 4.98046C19.4532 4.89537 19.4015 4.81808 19.3363 4.753L15.6637 1.08033C15.5325 0.94902 15.3546 0.875163 15.169 0.875H1.575C1.38935 0.875 1.2113 0.94875 1.08003 1.08003C0.94875 1.2113 0.875 1.38935 0.875 1.575V23.5083C0.875 23.694 0.94875 23.872 1.08003 24.0033C1.2113 24.1346 1.38935 24.2083 1.575 24.2083H11.375M5.54167 10.2083H14.875M5.54167 5.54167H10.2083M5.54167 14.875H9.04167" stroke="#9CA3AF" stroke-width="1.75" stroke-linecap="round" stroke-linejoin="round"/>
<path d="M14.875 0.875V4.84167C14.875 5.02732 14.9487 5.20537 15.08 5.33664C15.2113 5.46792 15.3893 5.54167 15.575 5.54167H19.5417M19.5323 16.1875L22.5143 16.9447C22.8247 17.024 23.0428 17.3063 23.0335 17.626C22.8328 24.3437 18.9583 25.375 18.9583 25.375C18.9583 25.375 15.0838 24.3437 14.8832 17.626C14.88 17.4705 14.9296 17.3185 15.0239 17.1947C15.1181 17.071 15.2515 16.9829 15.4023 16.9447L18.3843 16.1875C18.7612 16.0918 19.1555 16.0918 19.5323 16.1875Z" fill="black" fill-opacity="0.6"/>
<path d="M14.875 0.875V4.84167C14.875 5.02732 14.9487 5.20537 15.08 5.33664C15.2113 5.46792 15.3893 5.54167 15.575 5.54167H19.5417M19.5323 16.1875L22.5143 16.9447C22.8247 17.024 23.0428 17.3063 23.0335 17.626C22.8328 24.3437 18.9583 25.375 18.9583 25.375C18.9583 25.375 15.0838 24.3437 14.8832 17.626C14.88 17.4705 14.9296 17.3185 15.0239 17.1947C15.1181 17.071 15.2515 16.9829 15.4023 16.9447L18.3843 16.1875C18.7612 16.0918 19.1555 16.0918 19.5323 16.1875Z" stroke="#9CA3AF" stroke-width="1.75" stroke-linecap="round" stroke-linejoin="round"/>
</svg>
