<svg width="16" height="16" viewBox="0 0 16 16" fill="none" xmlns="http://www.w3.org/2000/svg">
<path d="M15.4367 15.3968L11.8089 11.7864M11.8089 11.7864C12.4265 11.1658 12.9158 10.4297 13.2489 9.62002C13.582 8.81036 13.7523 7.94302 13.7502 7.06752C13.7481 6.19202 13.5736 5.32551 13.2367 4.51746C12.8997 3.7094 12.4068 2.97563 11.7863 2.35805C11.1657 1.74046 10.4296 1.25114 9.61995 0.918043C8.81029 0.584942 7.94295 0.414577 7.06745 0.416675C6.19195 0.418772 5.32544 0.593292 4.51739 0.930269C3.70934 1.26725 2.97557 1.76008 2.35798 2.38064C1.1107 3.6339 0.412372 5.33132 0.416608 7.09947C0.420844 8.86762 1.1273 10.5617 2.38057 11.8089C3.63384 13.0562 5.33125 13.7545 7.0994 13.7503C8.86755 13.7461 10.5616 13.0396 11.8089 11.7864Z" stroke="black" stroke-opacity="0.5" stroke-width="0.833333" stroke-linecap="round" stroke-linejoin="round"/>
</svg>
