<svg width="24" height="24" viewBox="0 0 24 24" fill="none" xmlns="http://www.w3.org/2000/svg">
<path d="M8.51667 23.3333L8.05 19.6C7.79722 19.5028 7.55922 19.3861 7.336 19.25C7.11278 19.1139 6.89383 18.9681 6.67917 18.8125L3.20833 20.2708L0 14.7292L3.00417 12.4542C2.98472 12.3181 2.975 12.187 2.975 12.061V11.2735C2.975 11.1467 2.98472 11.0153 3.00417 10.8792L0 8.60417L3.20833 3.0625L6.67917 4.52083C6.89306 4.36528 7.11667 4.21944 7.35 4.08333C7.58333 3.94722 7.81667 3.83056 8.05 3.73333L8.51667 0H14.9333L15.4 3.73333C15.6528 3.83056 15.8912 3.94722 16.1152 4.08333C16.3392 4.21944 16.5577 4.36528 16.7708 4.52083L20.2417 3.0625L23.45 8.60417L20.4458 10.8792C20.4653 11.0153 20.475 11.1467 20.475 11.2735V12.0598C20.475 12.1866 20.4556 12.3181 20.4167 12.4542L23.4208 14.7292L20.2125 20.2708L16.7708 18.8125C16.5569 18.9681 16.3333 19.1139 16.1 19.25C15.8667 19.3861 15.6333 19.5028 15.4 19.6L14.9333 23.3333H8.51667ZM11.7833 15.75C12.9111 15.75 13.8736 15.3514 14.6708 14.5542C15.4681 13.7569 15.8667 12.7944 15.8667 11.6667C15.8667 10.5389 15.4681 9.57639 14.6708 8.77917C13.8736 7.98194 12.9111 7.58333 11.7833 7.58333C10.6361 7.58333 9.66856 7.98194 8.88067 8.77917C8.09278 9.57639 7.69922 10.5389 7.7 11.6667C7.70078 12.7944 8.09472 13.7569 8.88183 14.5542C9.66894 15.3514 10.6361 15.75 11.7833 15.75Z" fill="black" fill-opacity="0.7"/>
</svg>
