<svg width="38" height="38" viewBox="0 0 38 38" fill="none" xmlns="http://www.w3.org/2000/svg">
<path d="M18.75 36.75C28.6908 36.75 36.75 28.6908 36.75 18.75C36.75 8.8092 28.6908 0.75 18.75 0.75C8.8092 0.75 0.75 8.8092 0.75 18.75C0.75 28.6908 8.8092 36.75 18.75 36.75Z" fill="#F1FF29" stroke="black" stroke-width="1.5" stroke-linecap="round" stroke-linejoin="round"/>
<path d="M10.5698 22.35C11.2943 24.1809 12.4587 25.7421 13.9319 26.8576C15.4051 27.9732 17.1284 28.5989 18.9077 28.664C20.687 28.7292 22.4515 28.2313 24.0023 27.2264C25.5531 26.2215 26.8286 24.7497 27.6851 22.9767" stroke="#F1FF29" stroke-width="1.5" stroke-linecap="round" stroke-linejoin="round"/>
<path d="M10.5698 22.35C11.2943 24.1809 12.4587 25.7421 13.9319 26.8576C15.4051 27.9732 17.1284 28.5989 18.9077 28.664C20.687 28.7292 22.4515 28.2313 24.0023 27.2264C25.5531 26.2215 26.8286 24.7497 27.6851 22.9767" stroke="black" stroke-width="1.5" stroke-linecap="round" stroke-linejoin="round"/>
<path d="M12.7499 14.55C12.5908 14.55 12.4382 14.4868 12.3256 14.3743C12.2131 14.2617 12.1499 14.1091 12.1499 13.95C12.1499 13.7909 12.2131 13.6383 12.3256 13.5257C12.4382 13.4132 12.5908 13.35 12.7499 13.35M12.7499 14.55C12.909 14.55 13.0616 14.4868 13.1742 14.3743C13.2867 14.2617 13.3499 14.1091 13.3499 13.95C13.3499 13.7909 13.2867 13.6383 13.1742 13.5257C13.0616 13.4132 12.909 13.35 12.7499 13.35M24.7499 14.55C24.5908 14.55 24.4382 14.4868 24.3256 14.3743C24.2131 14.2617 24.1499 14.1091 24.1499 13.95C24.1499 13.7909 24.2131 13.6383 24.3256 13.5257C24.4382 13.4132 24.5908 13.35 24.7499 13.35M24.7499 14.55C24.909 14.55 25.0616 14.4868 25.1742 14.3743C25.2867 14.2617 25.3499 14.1091 25.3499 13.95C25.3499 13.7909 25.2867 13.6383 25.1742 13.5257C25.0616 13.4132 24.909 13.35 24.7499 13.35" fill="#F1FF29"/>
<path d="M12.7499 14.55C12.5908 14.55 12.4382 14.4868 12.3256 14.3743C12.2131 14.2617 12.1499 14.1091 12.1499 13.95C12.1499 13.7909 12.2131 13.6383 12.3256 13.5257C12.4382 13.4132 12.5908 13.35 12.7499 13.35C12.909 13.35 13.0616 13.4132 13.1742 13.5257C13.2867 13.6383 13.3499 13.7909 13.3499 13.95C13.3499 14.1091 13.2867 14.2617 13.1742 14.3743C13.0616 14.4868 12.909 14.55 12.7499 14.55ZM24.7499 14.55C24.5908 14.55 24.4382 14.4868 24.3256 14.3743C24.2131 14.2617 24.1499 14.1091 24.1499 13.95C24.1499 13.7909 24.2131 13.6383 24.3256 13.5257C24.4382 13.4132 24.5908 13.35 24.7499 13.35C24.909 13.35 25.0616 13.4132 25.1742 13.5257C25.2867 13.6383 25.3499 13.7909 25.3499 13.95C25.3499 14.1091 25.2867 14.2617 25.1742 14.3743C25.0616 14.4868 24.909 14.55 24.7499 14.55Z" stroke="#F1FF29" stroke-width="1.5"/>
<path d="M12.7499 14.55C12.5908 14.55 12.4382 14.4868 12.3256 14.3743C12.2131 14.2617 12.1499 14.1091 12.1499 13.95C12.1499 13.7909 12.2131 13.6383 12.3256 13.5257C12.4382 13.4132 12.5908 13.35 12.7499 13.35C12.909 13.35 13.0616 13.4132 13.1742 13.5257C13.2867 13.6383 13.3499 13.7909 13.3499 13.95C13.3499 14.1091 13.2867 14.2617 13.1742 14.3743C13.0616 14.4868 12.909 14.55 12.7499 14.55ZM24.7499 14.55C24.5908 14.55 24.4382 14.4868 24.3256 14.3743C24.2131 14.2617 24.1499 14.1091 24.1499 13.95C24.1499 13.7909 24.2131 13.6383 24.3256 13.5257C24.4382 13.4132 24.5908 13.35 24.7499 13.35C24.909 13.35 25.0616 13.4132 25.1742 13.5257C25.2867 13.6383 25.3499 13.7909 25.3499 13.95C25.3499 14.1091 25.2867 14.2617 25.1742 14.3743C25.0616 14.4868 24.909 14.55 24.7499 14.55Z" stroke="black" stroke-width="1.5"/>
</svg>
