<svg width="26" height="17" viewBox="0 0 26 17" fill="none" xmlns="http://www.w3.org/2000/svg">
<path d="M21.9494 0H3.13562C2.30428 0.000745747 1.50724 0.278017 0.919386 0.770976C0.331534 1.26393 0.0008893 1.93232 0 2.62946V13.8986C0.0008893 14.5957 0.331534 15.2641 0.919386 15.7571C1.50724 16.25 2.30428 16.5273 3.13562 16.5281H21.9494C22.7807 16.5273 23.5778 16.25 24.1656 15.7571C24.7535 15.2641 25.0841 14.5957 25.085 13.8986V2.62946C25.0841 1.93232 24.7535 1.26393 24.1656 0.770976C23.5778 0.278017 22.7807 0.000745747 21.9494 0ZM21.1554 4.34942L13.0924 9.60835C12.9351 9.71084 12.7416 9.76649 12.5425 9.76649C12.3433 9.76649 12.1499 9.71084 11.9926 9.60835L3.92961 4.34942C3.83488 4.28942 3.75531 4.21424 3.69552 4.12824C3.63574 4.04224 3.59693 3.94713 3.58136 3.84844C3.56579 3.74975 3.57376 3.64945 3.60481 3.55337C3.63586 3.45729 3.68938 3.36734 3.76225 3.28875C3.83511 3.21016 3.92588 3.1445 4.02927 3.09558C4.13266 3.04666 4.24661 3.01546 4.3645 3.00379C4.48239 2.99212 4.60188 3.00022 4.71601 3.02761C4.83014 3.055 4.93664 3.10114 5.02932 3.16334L12.5425 8.06353L20.0557 3.16334C20.2435 3.04437 20.4797 2.99219 20.7131 3.01808C20.9465 3.04398 21.1583 3.14587 21.3028 3.30173C21.4474 3.45758 21.5129 3.65487 21.4853 3.85093C21.4577 4.04699 21.3392 4.22606 21.1554 4.34942Z" fill="black" fill-opacity="0.5"/>
</svg>
