<svg width="25" height="16" viewBox="0 0 25 16" fill="none" xmlns="http://www.w3.org/2000/svg">
<path fill-rule="evenodd" clip-rule="evenodd" d="M1.42857 1.47692L1.42857 14.5231L16.4286 14.5231V1.47692L1.42857 1.47692ZM1.19048 0L16.6667 0C16.9824 0 17.2852 0.12967 17.5085 0.360484C17.7317 0.591298 17.8571 0.904349 17.8571 1.23077V14.7692C17.8571 15.0957 17.7317 15.4087 17.5085 15.6395C17.2852 15.8703 16.9824 16 16.6667 16L1.19048 16C0.874742 16 0.57194 15.8703 0.348682 15.6395C0.125425 15.4087 0 15.0957 0 14.7692L0 1.23077C0 0.904349 0.125425 0.591298 0.348682 0.360484C0.57194 0.12967 0.874742 0 1.19048 0ZM20.4762 9.75139L23.5714 12.3114V3.68862L20.4762 6.24862V9.75139ZM19.0476 5.53846L23.0655 2.21538C23.2405 2.0705 23.4516 1.97967 23.6743 1.95335C23.8971 1.92702 24.1225 1.96627 24.3247 2.06659C24.5268 2.1669 24.6975 2.32419 24.8169 2.52035C24.9364 2.71652 24.9999 2.94357 25 3.17538V12.8246C24.9999 13.0564 24.9364 13.2835 24.8169 13.4796C24.6975 13.6758 24.5268 13.8331 24.3247 13.9334C24.1225 14.0337 23.8971 14.073 23.6743 14.0467C23.4516 14.0203 23.2405 13.9295 23.0655 13.7846L19.0476 10.4615V5.53846Z" fill="#0493E2" fill-opacity="0.9"/>
</svg>
