<svg width="30" height="30" viewBox="0 0 30 30" fill="none" xmlns="http://www.w3.org/2000/svg">
<path d="M15 23.3333C15.4722 23.3333 15.8683 23.1733 16.1883 22.8533C16.5083 22.5333 16.6678 22.1378 16.6667 21.6667C16.6656 21.1956 16.5056 20.8 16.1867 20.48C15.8678 20.16 15.4722 20 15 20C14.5278 20 14.1322 20.16 13.8133 20.48C13.4944 20.8 13.3344 21.1956 13.3333 21.6667C13.3322 22.1378 13.4922 22.5339 13.8133 22.855C14.1344 23.1761 14.53 23.3356 15 23.3333ZM16.1883 16.1867C16.5072 15.8678 16.6667 15.4722 16.6667 15V8.33333C16.6667 7.86111 16.5067 7.46556 16.1867 7.14667C15.8667 6.82778 15.4711 6.66778 15 6.66667C14.5289 6.66556 14.1333 6.82556 13.8133 7.14667C13.4933 7.46778 13.3333 7.86333 13.3333 8.33333V15C13.3333 15.4722 13.4933 15.8683 13.8133 16.1883C14.1333 16.5083 14.5289 16.6678 15 16.6667C15.4711 16.6656 15.8672 16.5056 16.1883 16.1867ZM10.125 30C9.68056 30 9.25722 29.9167 8.855 29.75C8.45278 29.5833 8.09833 29.3472 7.79167 29.0417L0.958333 22.2083C0.652778 21.9028 0.416667 21.5483 0.25 21.145C0.0833335 20.7417 0 20.3189 0 19.8767V10.1267C0 9.68222 0.0833335 9.25889 0.25 8.85667C0.416667 8.45444 0.652778 8.1 0.958333 7.79333L7.79167 0.96C8.09722 0.654444 8.45167 0.418333 8.855 0.251667C9.25833 0.085 9.68167 0.00111111 10.125 0H19.875C20.3194 0 20.7433 0.0833335 21.1467 0.25C21.55 0.416667 21.9039 0.652778 22.2083 0.958333L29.0417 7.79167C29.3472 8.09722 29.5833 8.45167 29.75 8.855C29.9167 9.25833 30 9.68167 30 10.125V19.875C30 20.3194 29.9167 20.7433 29.75 21.1467C29.5833 21.55 29.3472 21.9039 29.0417 22.2083L22.2083 29.0417C21.9028 29.3472 21.5483 29.5833 21.145 29.75C20.7417 29.9167 20.3183 30 19.875 30H10.125Z" fill="white"/>
<path d="M15 23.3333C15.4722 23.3333 15.8683 23.1733 16.1883 22.8533C16.5083 22.5333 16.6678 22.1378 16.6667 21.6667C16.6656 21.1956 16.5056 20.8 16.1867 20.48C15.8678 20.16 15.4722 20 15 20C14.5278 20 14.1322 20.16 13.8133 20.48C13.4944 20.8 13.3344 21.1956 13.3333 21.6667C13.3322 22.1378 13.4922 22.5339 13.8133 22.855C14.1344 23.1761 14.53 23.3356 15 23.3333ZM16.1883 16.1867C16.5072 15.8678 16.6667 15.4722 16.6667 15V8.33333C16.6667 7.86111 16.5067 7.46556 16.1867 7.14667C15.8667 6.82778 15.4711 6.66778 15 6.66667C14.5289 6.66556 14.1333 6.82556 13.8133 7.14667C13.4933 7.46778 13.3333 7.86333 13.3333 8.33333V15C13.3333 15.4722 13.4933 15.8683 13.8133 16.1883C14.1333 16.5083 14.5289 16.6678 15 16.6667C15.4711 16.6656 15.8672 16.5056 16.1883 16.1867ZM10.125 30C9.68056 30 9.25722 29.9167 8.855 29.75C8.45278 29.5833 8.09833 29.3472 7.79167 29.0417L0.958333 22.2083C0.652778 21.9028 0.416667 21.5483 0.25 21.145C0.0833335 20.7417 0 20.3189 0 19.8767V10.1267C0 9.68222 0.0833335 9.25889 0.25 8.85667C0.416667 8.45444 0.652778 8.1 0.958333 7.79333L7.79167 0.96C8.09722 0.654444 8.45167 0.418333 8.855 0.251667C9.25833 0.085 9.68167 0.00111111 10.125 0H19.875C20.3194 0 20.7433 0.0833335 21.1467 0.25C21.55 0.416667 21.9039 0.652778 22.2083 0.958333L29.0417 7.79167C29.3472 8.09722 29.5833 8.45167 29.75 8.855C29.9167 9.25833 30 9.68167 30 10.125V19.875C30 20.3194 29.9167 20.7433 29.75 21.1467C29.5833 21.55 29.3472 21.9039 29.0417 22.2083L22.2083 29.0417C21.9028 29.3472 21.5483 29.5833 21.145 29.75C20.7417 29.9167 20.3183 30 19.875 30H10.125Z" fill="#D28046"/>
</svg>
